<svg width="60" height="60" viewBox="0 0 60 60" fill="none" xmlns="http://www.w3.org/2000/svg">
    <circle cx="30" cy="30" r="30" fill="#B2B4E5"/>
    <path d="M20.4414 30.0117C19.8555 30.0117 19.5625 29.7839 19.5625 29.3281V28.3516C19.5625 27.8958 19.8555 27.668 20.4414 27.668H29.3086V18.7812C29.3086 18.1953 29.5365 17.9023 29.9922 17.9023H30.9688C31.4245 17.9023 31.6523 18.1953 31.6523 18.7812V27.668H40.5586C41.1445 27.668 41.4375 27.8958 41.4375 28.3516V29.3281C41.4375 29.7839 41.1445 30.0117 40.5586 30.0117H31.6523V38.8984C31.6523 39.4844 31.4245 39.7773 30.9688 39.7773H29.9922C29.5365 39.7773 29.3086 39.4844 29.3086 38.8984V30.0117H20.4414Z" fill="black"/>
</svg>
