<svg width="30" height="30" viewBox="0 0 30 30" fill="none" xmlns="http://www.w3.org/2000/svg">
    <g clip-path="url(#clip0_63_185)">
        <path d="M10.7944 2.00811C10.9 2.07138 10.9922 2.15484 11.0656 2.25372C11.1389 2.35261 11.1921 2.46498 11.2221 2.58443C11.252 2.70387 11.2582 2.82805 11.2401 2.94986C11.2221 3.07167 11.1802 3.18874 11.1169 3.29436L6.34312 11.25H23.6569L18.8812 3.29436C18.7534 3.08103 18.7156 2.82566 18.7761 2.58445C18.8366 2.34323 18.9904 2.13591 19.2037 2.00811C19.4171 1.88031 19.6724 1.84249 19.9137 1.90297C20.1549 1.96345 20.3622 2.11728 20.49 2.33061L25.8431 11.25H29.0625C29.3111 11.25 29.5496 11.3488 29.7254 11.5246C29.9012 11.7004 30 11.9388 30 12.1875V14.0625C30 14.3111 29.9012 14.5496 29.7254 14.7254C29.5496 14.9012 29.3111 15 29.0625 15H0.9375C0.68886 15 0.450403 14.9012 0.274587 14.7254C0.0987721 14.5496 0 14.3111 0 14.0625V12.1875C0 11.9388 0.0987721 11.7004 0.274587 11.5246C0.450403 11.3488 0.68886 11.25 0.9375 11.25H4.15688L9.50625 2.33061C9.56952 2.22496 9.65297 2.13281 9.75186 2.05943C9.85075 1.98604 9.96312 1.93285 10.0826 1.9029C10.202 1.87295 10.3262 1.86683 10.448 1.88488C10.5698 1.90294 10.6887 1.94481 10.7944 2.00811ZM6.36375 28.125L3.58875 16.875H1.77L4.62937 28.9237C4.70342 29.2305 4.87849 29.5034 5.12641 29.6986C5.37433 29.8938 5.6807 30 5.99625 30H24.0075C24.3234 30.0004 24.6302 29.8944 24.8785 29.6992C25.1268 29.5039 25.3021 29.2308 25.3763 28.9237L28.23 16.875H26.4075L23.6344 28.125H6.36375Z" fill="black"/>
    </g>
    <defs>
        <clipPath id="clip0_63_185">
            <rect width="30" height="30" fill="white"/>
        </clipPath>
    </defs>
</svg>
