<svg width="30" height="30" viewBox="0 0 30 30" fill="none" xmlns="http://www.w3.org/2000/svg">
    <g clip-path="url(#clip0_88_390)">
        <path d="M22.7736 0.273961C22.8607 0.186655 22.9642 0.117387 23.0781 0.070125C23.192 0.0228629 23.3141 -0.00146484 23.4374 -0.00146484C23.5607 -0.00146484 23.6828 0.0228629 23.7967 0.070125C23.9106 0.117387 24.014 0.186655 24.1011 0.273961L29.7261 5.89896C29.8134 5.98605 29.8827 6.0895 29.93 6.2034C29.9772 6.3173 30.0016 6.4394 30.0016 6.56271C30.0016 6.68602 29.9772 6.80813 29.93 6.92202C29.8827 7.03592 29.8134 7.13938 29.7261 7.22646L10.9761 25.9765C10.8862 26.0658 10.779 26.136 10.6611 26.1827L1.28613 29.9327C1.11576 30.0009 0.929123 30.0176 0.749355 29.9807C0.569587 29.9438 0.404594 29.855 0.274832 29.7253C0.14507 29.5955 0.0562444 29.4305 0.0193679 29.2507C-0.0175085 29.071 -0.000814473 28.8843 0.0673805 28.714L3.81738 19.339C3.86412 19.2211 3.93429 19.1139 4.02363 19.024L22.7736 0.273961ZM21.013 4.68771L25.3124 8.98709L27.7368 6.56271L23.4374 2.26334L21.013 4.68771ZM23.9868 10.3127L19.6874 6.01334L7.49988 18.2008V18.7502H8.43738C8.68602 18.7502 8.92448 18.849 9.10029 19.0248C9.27611 19.2006 9.37488 19.4391 9.37488 19.6877V20.6252H10.3124C10.561 20.6252 10.7995 20.724 10.9753 20.8998C11.1511 21.0756 11.2499 21.3141 11.2499 21.5627V22.5002H11.7993L23.9868 10.3127ZM5.68488 20.0158L5.48613 20.2146L2.62113 27.379L9.78551 24.514L9.98425 24.3152C9.80542 24.2484 9.65124 24.1286 9.54235 23.9718C9.43345 23.8149 9.37502 23.6286 9.37488 23.4377V22.5002H8.43738C8.18874 22.5002 7.95028 22.4014 7.77447 22.2256C7.59865 22.0498 7.49988 21.8114 7.49988 21.5627V20.6252H6.56238C6.37147 20.6251 6.18515 20.5666 6.02834 20.4577C5.87153 20.3489 5.7517 20.1947 5.68488 20.0158Z" fill="black"/>
    </g>
    <defs>
        <clipPath id="clip0_88_390">
            <rect width="30" height="30" fill="white"/>
        </clipPath>
    </defs>
</svg>
