<svg width="60" height="60" viewBox="0 0 60 60" fill="none" xmlns="http://www.w3.org/2000/svg">
    <g clip-path="url(#clip0_88_397)">
        <path d="M30 56.25C23.0381 56.25 16.3613 53.4844 11.4384 48.5616C6.51562 43.6387 3.75 36.9619 3.75 30C3.75 23.0381 6.51562 16.3613 11.4384 11.4384C16.3613 6.51562 23.0381 3.75 30 3.75C36.9619 3.75 43.6387 6.51562 48.5616 11.4384C53.4844 16.3613 56.25 23.0381 56.25 30C56.25 36.9619 53.4844 43.6387 48.5616 48.5616C43.6387 53.4844 36.9619 56.25 30 56.25ZM30 60C37.9565 60 45.5871 56.8393 51.2132 51.2132C56.8393 45.5871 60 37.9565 60 30C60 22.0435 56.8393 14.4129 51.2132 8.7868C45.5871 3.16071 37.9565 0 30 0C22.0435 0 14.4129 3.16071 8.7868 8.7868C3.16071 14.4129 0 22.0435 0 30C0 37.9565 3.16071 45.5871 8.7868 51.2132C14.4129 56.8393 22.0435 60 30 60Z" fill="black"/>
        <path d="M41.1376 18.6376C41.1108 18.6635 41.0858 18.691 41.0625 18.7201L28.0388 35.3138L20.19 27.4613C19.6569 26.9645 18.9517 26.6941 18.2231 26.7069C17.4945 26.7198 16.7993 27.0149 16.284 27.5302C15.7687 28.0455 15.4735 28.7407 15.4606 29.4694C15.4478 30.198 15.7182 30.9032 16.215 31.4363L26.1375 41.3626C26.4049 41.6294 26.7232 41.8396 27.0735 41.9808C27.4238 42.1219 27.799 42.191 28.1766 42.184C28.5542 42.177 28.9266 42.0941 29.2714 41.94C29.6163 41.786 29.9266 41.5641 30.1838 41.2876L45.1538 22.5751C45.6635 22.0401 45.9422 21.3259 45.9296 20.5871C45.917 19.8482 45.6142 19.144 45.0865 18.6267C44.5588 18.1094 43.8488 17.8205 43.1098 17.8225C42.3708 17.8246 41.6624 18.1173 41.1376 18.6376Z" fill="black"/>
    </g>
    <defs>
        <clipPath id="clip0_88_397">
            <rect width="60" height="60" fill="white"/>
        </clipPath>
    </defs>
</svg>
