<svg width="30" height="30" viewBox="0 0 30 30" fill="none" xmlns="http://www.w3.org/2000/svg">
    <path d="M20.625 9.375C20.625 10.8668 20.0324 12.2976 18.9775 13.3525C17.9226 14.4074 16.4918 15 15 15C13.5082 15 12.0774 14.4074 11.0225 13.3525C9.96763 12.2976 9.375 10.8668 9.375 9.375C9.375 7.88316 9.96763 6.45242 11.0225 5.39752C12.0774 4.34263 13.5082 3.75 15 3.75C16.4918 3.75 17.9226 4.34263 18.9775 5.39752C20.0324 6.45242 20.625 7.88316 20.625 9.375ZM15 13.125C15.9946 13.125 16.9484 12.7299 17.6516 12.0267C18.3549 11.3234 18.75 10.3696 18.75 9.375C18.75 8.38044 18.3549 7.42661 17.6516 6.72335C16.9484 6.02009 15.9946 5.625 15 5.625C14.0054 5.625 13.0516 6.02009 12.3483 6.72335C11.6451 7.42661 11.25 8.38044 11.25 9.375C11.25 10.3696 11.6451 11.3234 12.3483 12.0267C13.0516 12.7299 14.0054 13.125 15 13.125ZM15 24.3675V26.25H5.625C5.625 26.25 3.75 26.25 3.75 24.375C3.75 22.5 5.625 16.875 15 16.875C16.0575 16.875 17.0194 16.9463 17.895 17.0756C17.3177 17.5788 16.8113 18.1578 16.3894 18.7969C15.9269 18.7648 15.4635 18.7492 15 18.75C10.7063 18.75 8.4075 20.025 7.185 21.2475C5.91375 22.5187 5.62875 23.9062 5.625 24.3675H15ZM16.875 24.375C16.875 23.8777 17.0725 23.4008 17.4242 23.0492C17.7758 22.6975 18.2527 22.5 18.75 22.5V20.625C18.75 19.6304 19.1451 18.6766 19.8484 17.9734C20.5516 17.2701 21.5054 16.875 22.5 16.875C23.4946 16.875 24.4484 17.2701 25.1516 17.9734C25.8549 18.6766 26.25 19.6304 26.25 20.625V22.5C26.7473 22.5 27.2242 22.6975 27.5758 23.0492C27.9275 23.4008 28.125 23.8777 28.125 24.375V28.125C28.125 28.6223 27.9275 29.0992 27.5758 29.4508C27.2242 29.8025 26.7473 30 26.25 30H18.75C18.2527 30 17.7758 29.8025 17.4242 29.4508C17.0725 29.0992 16.875 28.6223 16.875 28.125V24.375ZM22.5 18.75C22.0027 18.75 21.5258 18.9475 21.1742 19.2992C20.8225 19.6508 20.625 20.1277 20.625 20.625V22.5H24.375V20.625C24.375 20.1277 24.1775 19.6508 23.8258 19.2992C23.4742 18.9475 22.9973 18.75 22.5 18.75Z" fill="black"/>
</svg>
