<svg width="30" height="30" viewBox="0 0 30 30" fill="none" xmlns="http://www.w3.org/2000/svg">
    <path d="M12.1875 1.875H17.8125C18.0611 1.875 18.2996 1.97377 18.4754 2.14959C18.6512 2.3254 18.75 2.56386 18.75 2.8125V4.6875H11.25V2.8125C11.25 2.56386 11.3488 2.3254 11.5246 2.14959C11.7004 1.97377 11.9389 1.875 12.1875 1.875ZM20.625 4.6875V2.8125C20.625 2.06658 20.3287 1.35121 19.8012 0.823762C19.2738 0.296316 18.5584 0 17.8125 0L12.1875 0C11.4416 0 10.7262 0.296316 10.1988 0.823762C9.67132 1.35121 9.375 2.06658 9.375 2.8125V4.6875H4.69875C4.6925 4.68745 4.68625 4.68745 4.68 4.6875H2.8125C2.56386 4.6875 2.3254 4.78627 2.14959 4.96209C1.97377 5.1379 1.875 5.37636 1.875 5.625C1.875 5.87364 1.97377 6.1121 2.14959 6.28791C2.3254 6.46373 2.56386 6.5625 2.8125 6.5625H3.82125L5.42062 26.55C5.49605 27.4897 5.92266 28.3666 6.61551 29.0059C7.30837 29.6453 8.21661 30.0002 9.15938 30H20.8406C21.7834 30.0002 22.6916 29.6453 23.3845 29.0059C24.0773 28.3666 24.504 27.4897 24.5794 26.55L26.1787 6.5625H27.1875C27.4361 6.5625 27.6746 6.46373 27.8504 6.28791C28.0262 6.1121 28.125 5.87364 28.125 5.625C28.125 5.37636 28.0262 5.1379 27.8504 4.96209C27.6746 4.78627 27.4361 4.6875 27.1875 4.6875H25.3219C25.3156 4.68745 25.3094 4.68745 25.3031 4.6875H20.625ZM24.2962 6.5625L22.71 26.4C22.6723 26.8699 22.459 27.3083 22.1126 27.628C21.7661 27.9476 21.312 28.1251 20.8406 28.125H9.15938C8.68799 28.1251 8.23387 27.9476 7.88744 27.628C7.54102 27.3083 7.32771 26.8699 7.29 26.4L5.70375 6.5625H24.2962ZM10.2581 8.4375C10.5062 8.42316 10.7499 8.50793 10.9356 8.67318C11.1212 8.83843 11.2336 9.07063 11.2481 9.31875L12.1856 25.2563C12.1955 25.5015 12.1088 25.7408 11.9442 25.9228C11.7795 26.1048 11.5501 26.215 11.3051 26.2297C11.0602 26.2444 10.8192 26.1625 10.634 26.0015C10.4487 25.8406 10.334 25.6134 10.3144 25.3687L9.375 9.43125C9.36739 9.30809 9.38416 9.18463 9.42437 9.06797C9.46457 8.9513 9.52742 8.84372 9.60929 8.7514C9.69116 8.65907 9.79046 8.58382 9.90148 8.52995C10.0125 8.47609 10.1331 8.44467 10.2562 8.4375H10.2581ZM19.7419 8.4375C19.8651 8.44467 19.9856 8.47609 20.0966 8.52995C20.2077 8.58382 20.307 8.65907 20.3888 8.7514C20.4707 8.84372 20.5336 8.9513 20.5738 9.06797C20.614 9.18463 20.6307 9.30809 20.6231 9.43125L19.6856 25.3687C19.6806 25.4933 19.6508 25.6157 19.598 25.7286C19.5451 25.8415 19.4702 25.9428 19.3778 26.0264C19.2853 26.11 19.1771 26.1744 19.0594 26.2157C18.9418 26.257 18.8171 26.2744 18.6926 26.2669C18.5682 26.2594 18.4464 26.2272 18.3346 26.1721C18.2227 26.117 18.123 26.0402 18.0412 25.946C17.9594 25.8519 17.8973 25.7424 17.8583 25.624C17.8194 25.5056 17.8044 25.3805 17.8144 25.2563L18.7519 9.31875C18.7664 9.07063 18.8788 8.83843 19.0644 8.67318C19.2501 8.50793 19.4938 8.42316 19.7419 8.4375ZM15 8.4375C15.2486 8.4375 15.4871 8.53627 15.6629 8.71209C15.8387 8.8879 15.9375 9.12636 15.9375 9.375V25.3125C15.9375 25.5611 15.8387 25.7996 15.6629 25.9754C15.4871 26.1512 15.2486 26.25 15 26.25C14.7514 26.25 14.5129 26.1512 14.3371 25.9754C14.1613 25.7996 14.0625 25.5611 14.0625 25.3125V9.375C14.0625 9.12636 14.1613 8.8879 14.3371 8.71209C14.5129 8.53627 14.7514 8.4375 15 8.4375Z" fill="black"/>
</svg>
