<svg width="30" height="30" viewBox="0 0 30 30" fill="none" xmlns="http://www.w3.org/2000/svg">
    <g clip-path="url(#clip0_63_187)">
        <path d="M5.625 4.6875C5.625 3.4443 6.11886 2.25201 6.99794 1.37294C7.87701 0.49386 9.0693 0 10.3125 0C11.5557 0 12.748 0.49386 13.6271 1.37294C14.5061 2.25201 15 3.4443 15 4.6875C15 3.4443 15.4939 2.25201 16.3729 1.37294C17.252 0.49386 18.4443 0 19.6875 0C20.9307 0 22.123 0.49386 23.0021 1.37294C23.8811 2.25201 24.375 3.4443 24.375 4.6875V4.69875C24.375 4.83 24.375 5.205 24.3037 5.625H28.125C28.6223 5.625 29.0992 5.82254 29.4508 6.17417C29.8025 6.52581 30 7.00272 30 7.5V11.25C30 11.7473 29.8025 12.2242 29.4508 12.5758C29.0992 12.9275 28.6223 13.125 28.125 13.125V27.1875C28.125 27.9334 27.8287 28.6488 27.3012 29.1762C26.7738 29.7037 26.0584 30 25.3125 30H4.6875C3.94158 30 3.22621 29.7037 2.69876 29.1762C2.17132 28.6488 1.875 27.9334 1.875 27.1875V13.125C1.37772 13.125 0.900806 12.9275 0.549175 12.5758C0.197544 12.2242 0 11.7473 0 11.25V7.5C0 7.00272 0.197544 6.52581 0.549175 6.17417C0.900806 5.82254 1.37772 5.625 1.875 5.625H5.69625C5.64673 5.31878 5.62289 5.00895 5.625 4.69875V4.6875ZM7.6275 5.625H13.125V4.6875C13.125 4.31816 13.0523 3.95243 12.9109 3.6112C12.7696 3.26997 12.5624 2.95993 12.3012 2.69876C12.0401 2.4376 11.73 2.23043 11.3888 2.08909C11.0476 1.94775 10.6818 1.875 10.3125 1.875C9.94316 1.875 9.57743 1.94775 9.2362 2.08909C8.89497 2.23043 8.58493 2.4376 8.32376 2.69876C8.0626 2.95993 7.85543 3.26997 7.71409 3.6112C7.57275 3.95243 7.5 4.31816 7.5 4.6875C7.5 4.84688 7.50375 5.20125 7.58438 5.49375C7.59564 5.53846 7.61005 5.58232 7.6275 5.625ZM16.875 5.625H22.3725C22.3897 5.58224 22.4041 5.5384 22.4156 5.49375C22.4963 5.20125 22.5 4.84688 22.5 4.6875C22.5 3.94158 22.2037 3.22621 21.6762 2.69876C21.1488 2.17132 20.4334 1.875 19.6875 1.875C18.9416 1.875 18.2262 2.17132 17.6988 2.69876C17.1713 3.22621 16.875 3.94158 16.875 4.6875V5.625ZM1.875 7.5V11.25H13.125V7.5H1.875ZM16.875 7.5V11.25H28.125V7.5H16.875ZM26.25 13.125H16.875V28.125H25.3125C25.5611 28.125 25.7996 28.0262 25.9754 27.8504C26.1512 27.6746 26.25 27.4361 26.25 27.1875V13.125ZM13.125 28.125V13.125H3.75V27.1875C3.75 27.4361 3.84877 27.6746 4.02459 27.8504C4.2004 28.0262 4.43886 28.125 4.6875 28.125H13.125Z" fill="black"/>
    </g>
    <defs>
        <clipPath id="clip0_63_187">
            <rect width="30" height="30" fill="white"/>
        </clipPath>
    </defs>
</svg>
