<svg width="30" height="30" viewBox="0 0 30 30" fill="none" xmlns="http://www.w3.org/2000/svg">
    <path d="M16.3256 2.8124C15.974 2.46089 15.4972 2.26343 15 2.26343C14.5028 2.26343 14.026 2.46089 13.6744 2.8124L1.21127 15.2737C1.12411 15.3608 1.05497 15.4643 1.00779 15.5782C0.96062 15.6921 0.93634 15.8141 0.93634 15.9374C0.93634 16.0607 0.96062 16.1827 1.00779 16.2966C1.05497 16.4105 1.12411 16.514 1.21127 16.6012C1.38731 16.7772 1.62607 16.8761 1.87502 16.8761C1.99829 16.8761 2.12036 16.8518 2.23424 16.8046C2.34813 16.7575 2.45161 16.6883 2.53877 16.6012L3.75002 15.388V25.3124C3.75002 26.0583 4.04634 26.7737 4.57379 27.3011C5.10123 27.8286 5.8166 28.1249 6.56252 28.1249H23.4375C24.1834 28.1249 24.8988 27.8286 25.4263 27.3011C25.9537 26.7737 26.25 26.0583 26.25 25.3124V15.388L27.4613 16.6012C27.6373 16.7772 27.8761 16.8761 28.125 16.8761C28.374 16.8761 28.6127 16.7772 28.7888 16.6012C28.9648 16.4251 29.0637 16.1864 29.0637 15.9374C29.0637 15.6884 28.9648 15.4497 28.7888 15.2737L24.375 10.8618V4.6874C24.375 4.43876 24.2763 4.20031 24.1004 4.02449C23.9246 3.84867 23.6862 3.7499 23.4375 3.7499H21.5625C21.3139 3.7499 21.0754 3.84867 20.8996 4.02449C20.7238 4.20031 20.625 4.43876 20.625 4.6874V7.11178L16.3256 2.8124ZM24.375 13.513V25.3124C24.375 25.561 24.2763 25.7995 24.1004 25.9753C23.9246 26.1511 23.6862 26.2499 23.4375 26.2499H6.56252C6.31388 26.2499 6.07543 26.1511 5.89961 25.9753C5.7238 25.7995 5.62502 25.561 5.62502 25.3124V13.513L15 4.13803L24.375 13.513Z" fill="black"/>
</svg>
