<svg width="30" height="30" viewBox="0 0 30 30" fill="none" xmlns="http://www.w3.org/2000/svg">
    <path d="M26.25 5.625C26.25 5.76847 26.2266 5.91097 26.1806 6.04688L23.0231 24.9919C22.877 25.8678 22.4249 26.6635 21.7471 27.2372C21.0693 27.811 20.2099 28.1256 19.3219 28.125H10.6762C9.78855 28.1251 8.9296 27.8103 8.25221 27.2366C7.57481 26.6629 7.1229 25.8675 6.97687 24.9919L3.81937 6.04688C3.77345 5.91096 3.75001 5.76846 3.75 5.625C3.75 3.55312 8.78625 1.875 15 1.875C21.2137 1.875 26.25 3.55312 26.25 5.625ZM6.02812 7.88812L8.8275 24.6825C8.90029 25.1203 9.12602 25.5181 9.46454 25.8051C9.80306 26.0922 10.2324 26.2498 10.6762 26.25H19.3237C19.7676 26.2498 20.1969 26.0922 20.5355 25.8051C20.874 25.5181 21.0997 25.1203 21.1725 24.6825L23.9719 7.88812C21.9187 8.79187 18.6637 9.375 15 9.375C11.3362 9.375 8.08125 8.79187 6.02812 7.88812Z" fill="black"/>
</svg>
